<svg width="48" height="253" viewBox="0 0 48 253" fill="none" xmlns="http://www.w3.org/2000/svg">
<path d="M23.8758 252.337C17.662 252.337 12.4839 250.496 8.34131 246.814C4.42891 243.131 2.47271 238.298 2.47271 232.315V95.956C2.47271 90.2025 4.42891 85.4846 8.34131 81.8023C12.4839 78.1201 17.662 76.279 23.8758 76.279C30.3198 76.279 35.3829 78.1201 39.0651 81.8023C42.9775 85.2545 44.9337 89.9723 44.9337 95.956V232.315C44.9337 238.298 42.9775 243.131 39.0651 246.814C35.3829 250.496 30.3198 252.337 23.8758 252.337ZM0.0562317 23.1163C0.0562317 16.6724 2.35764 11.2641 6.96046 6.8914C11.5633 2.51873 17.2017 0.332385 23.8758 0.332385C30.7801 0.332385 36.4185 2.51873 40.7912 6.8914C45.1639 11.0339 47.3502 16.4423 47.3502 23.1163V37.6152C47.3502 44.2893 45.1639 49.8127 40.7912 54.1854C36.4185 58.3279 30.7801 60.3992 23.8758 60.3992C16.9716 60.3992 11.2181 58.3279 6.61525 54.1854C2.24257 49.8127 0.0562317 44.2893 0.0562317 37.6152V23.1163Z" fill="white"/>
</svg>
