<svg width="11073" height="4783" viewBox="0 0 11073 4783" fill="none" xmlns="http://www.w3.org/2000/svg">
<g clip-path="url(#clip0_1268_31241)">
<circle cx="3929" cy="1542" r="7" fill="#8282FF"/>
<circle cx="5599" cy="684" r="7" fill="#8282FF"/>
<circle cx="2622" cy="1852" r="7" fill="#8282FF"/>
<circle cx="7" cy="7" r="7" transform="matrix(1 0 0 -1 5669 2409)" fill="#8282FF"/>
<circle cx="7" cy="7" r="7" transform="matrix(1 0 0 -1 4820 2913)" fill="#8282FF"/>
<circle cx="7" cy="7" r="7" transform="matrix(1 0 0 -1 6490 2055)" fill="#8282FF"/>
<circle cx="7" cy="7" r="7" transform="matrix(1 0 0 -1 3513 3223)" fill="#8282FF"/>
<circle cx="6574" cy="1038" r="7" fill="#8282FF"/>
<circle cx="7" cy="7" r="7" transform="matrix(1 0 0 -1 541 2794)" fill="#8282FF"/>
<circle cx="625" cy="299" r="7" fill="#8282FF"/>
<circle cx="6107" cy="3097" r="7" fill="#8282FF"/>
<circle cx="7777" cy="2239" r="7" fill="#8282FF"/>
<circle cx="4800" cy="3407" r="7" fill="#8282FF"/>
<circle cx="7" cy="7" r="7" transform="matrix(1 0 0 -1 7847 854)" fill="#8282FF"/>
<circle cx="7" cy="7" r="7" transform="matrix(1 0 0 -1 6998 1358)" fill="#8282FF"/>
<circle cx="7" cy="7" r="7" transform="matrix(1 0 0 -1 8668 500)" fill="#8282FF"/>
<circle cx="7" cy="7" r="7" transform="matrix(1 0 0 -1 5691 1668)" fill="#8282FF"/>
<circle cx="8752" cy="2593" r="7" fill="#8282FF"/>
<circle cx="7" cy="7" r="7" transform="matrix(1 0 0 -1 1049 2097)" fill="#8282FF"/>
<circle cx="7" cy="7" r="7" transform="matrix(1 0 0 -1 2719 1239)" fill="#8282FF"/>
<circle cx="2803" cy="1854" r="7" fill="#8282FF"/>
<circle cx="7885" cy="1334" r="7" fill="#8282FF"/>
<circle cx="9555" cy="476" r="7" fill="#8282FF"/>
<circle cx="6578" cy="1644" r="7" fill="#8282FF"/>
<circle cx="7" cy="7" r="7" transform="matrix(1 0 0 -1 9625 2617)" fill="#8282FF"/>
<circle cx="7" cy="7" r="7" transform="matrix(1 0 0 -1 8776 3121)" fill="#8282FF"/>
<circle cx="7" cy="7" r="7" transform="matrix(1 0 0 -1 10446 2263)" fill="#8282FF"/>
<circle cx="7" cy="7" r="7" transform="matrix(1 0 0 -1 7469 3431)" fill="#8282FF"/>
<circle cx="10530" cy="830" r="7" fill="#8282FF"/>
<circle cx="7" cy="7" r="7" transform="matrix(1 0 0 -1 2827 3860)" fill="#8282FF"/>
<circle cx="7" cy="7" r="7" transform="matrix(1 0 0 -1 4497 3002)" fill="#8282FF"/>
<circle cx="7" cy="7" r="7" transform="matrix(1 0 0 -1 1520 4170)" fill="#8282FF"/>
<circle cx="4581" cy="91" r="7" fill="#8282FF"/>
<circle cx="2686" cy="3408" r="7" fill="#8282FF"/>
<circle cx="4356" cy="2550" r="7" fill="#8282FF"/>
<circle cx="1379" cy="3718" r="7" fill="#8282FF"/>
<circle cx="7" cy="7" r="7" transform="matrix(1 0 0 -1 4426 543)" fill="#8282FF"/>
<circle cx="7" cy="7" r="7" transform="matrix(1 0 0 -1 3577 1047)" fill="#8282FF"/>
<circle cx="7" cy="7" r="7" transform="matrix(1 0 0 -1 5247 189)" fill="#8282FF"/>
<circle cx="7" cy="7" r="7" transform="matrix(1 0 0 -1 2270 1357)" fill="#8282FF"/>
<circle cx="5331" cy="2904" r="7" fill="#8282FF"/>
<circle cx="1323" cy="1793" r="7" fill="#8282FF"/>
<circle cx="2993" cy="935" r="7" fill="#8282FF"/>
<circle cx="16" cy="2103" r="7" fill="#8282FF"/>
<circle cx="7" cy="7" r="7" transform="matrix(1 0 0 -1 3063 2158)" fill="#8282FF"/>
<circle cx="7" cy="7" r="7" transform="matrix(1 0 0 -1 2214 2662)" fill="#8282FF"/>
<circle cx="7" cy="7" r="7" transform="matrix(1 0 0 -1 3884 1804)" fill="#8282FF"/>
<circle cx="7" cy="7" r="7" transform="matrix(1 0 0 -1 907 2972)" fill="#8282FF"/>
<circle cx="3968" cy="1289" r="7" fill="#8282FF"/>
<circle cx="4597" cy="2860" r="7" fill="#8282FF"/>
<circle cx="6267" cy="2002" r="7" fill="#8282FF"/>
<circle cx="3290" cy="3170" r="7" fill="#8282FF"/>
<circle cx="7" cy="7" r="7" transform="matrix(1 0 0 -1 6337 1091)" fill="#8282FF"/>
<circle cx="7" cy="7" r="7" transform="matrix(1 0 0 -1 5488 1595)" fill="#8282FF"/>
<circle cx="7" cy="7" r="7" transform="matrix(1 0 0 -1 7158 737)" fill="#8282FF"/>
<circle cx="7" cy="7" r="7" transform="matrix(1 0 0 -1 4181 1905)" fill="#8282FF"/>
<circle cx="7242" cy="2356" r="7" fill="#8282FF"/>
<circle cx="7" cy="7" r="7" transform="matrix(1 0 0 -1 1209 1476)" fill="#8282FF"/>
<circle cx="1293" cy="1617" r="7" fill="#8282FF"/>
<circle cx="7589" cy="3719" r="7" fill="#8282FF"/>
<circle cx="9259" cy="2861" r="7" fill="#8282FF"/>
<circle cx="6282" cy="4029" r="7" fill="#8282FF"/>
<circle cx="7" cy="7" r="7" transform="matrix(1 0 0 -1 9329 232)" fill="#8282FF"/>
<circle cx="7" cy="7" r="7" transform="matrix(1 0 0 -1 8480 736)" fill="#8282FF"/>
<circle cx="7" cy="7" r="7" transform="matrix(1 0 0 -1 7173 1046)" fill="#8282FF"/>
<circle cx="10234" cy="3215" r="7" fill="#8282FF"/>
<circle cx="7" cy="7" r="7" transform="matrix(1 0 0 -1 2531 1475)" fill="#8282FF"/>
<circle cx="7" cy="7" r="7" transform="matrix(1 0 0 -1 4201 617)" fill="#8282FF"/>
<circle cx="7" cy="7" r="7" transform="matrix(1 0 0 -1 1224 1785)" fill="#8282FF"/>
<circle cx="4285" cy="2476" r="7" fill="#8282FF"/>
<circle cx="9367" cy="667" r="7" fill="#8282FF"/>
<circle cx="8060" cy="977" r="7" fill="#8282FF"/>
<circle cx="7" cy="7" r="7" transform="matrix(1 0 0 -1 10258 3788)" fill="#8282FF"/>
<circle cx="7" cy="7" r="7" transform="matrix(1 0 0 -1 8951 4098)" fill="#8282FF"/>
<circle cx="7" cy="7" r="7" transform="matrix(1 0 0 -1 4309 4527)" fill="#8282FF"/>
<circle cx="7" cy="7" r="7" transform="matrix(1 0 0 -1 5979 3669)" fill="#8282FF"/>
<circle cx="10182" cy="3466" r="7" fill="#8282FF"/>
<circle cx="8875" cy="3776" r="7" fill="#8282FF"/>
<circle cx="7" cy="7" r="7" transform="matrix(1 0 0 -1 9766 1299)" fill="#8282FF"/>
<circle cx="7" cy="7" r="7" transform="matrix(1 0 0 -1 5124 1728)" fill="#8282FF"/>
<circle cx="7" cy="7" r="7" transform="matrix(1 0 0 -1 6794 870)" fill="#8282FF"/>
<circle cx="7" cy="7" r="7" transform="matrix(1 0 0 -1 3817 2038)" fill="#8282FF"/>
<circle cx="6878" cy="2223" r="7" fill="#8282FF"/>
<circle cx="11008" cy="4058" r="7" fill="#8282FF"/>
<circle cx="7" cy="7" r="7" transform="matrix(1 0 0 -1 7257 1446)" fill="#8282FF"/>
<circle cx="7" cy="7" r="7" transform="matrix(1 0 0 -1 8927 588)" fill="#8282FF"/>
<circle cx="7" cy="7" r="7" transform="matrix(1 0 0 -1 5950 1756)" fill="#8282FF"/>
<circle cx="9011" cy="2505" r="7" fill="#8282FF"/>
<circle cx="11037" cy="1169" r="7" fill="#8282FF"/>
<circle cx="7" cy="7" r="7" transform="matrix(1 0 0 -1 7286 4335)" fill="#8282FF"/>
<circle cx="7" cy="7" r="7" transform="matrix(1 0 0 -1 8956 3477)" fill="#8282FF"/>
<circle cx="7" cy="7" r="7" transform="matrix(1 0 0 -1 5979 4645)" fill="#8282FF"/>
<circle cx="10164" cy="1615" r="7" fill="#8282FF"/>
<circle cx="7" cy="7" r="7" transform="matrix(1 0 0 -1 11055 3460)" fill="#8282FF"/>
<circle cx="7" cy="7" r="7" transform="matrix(1 0 0 -1 6413 3889)" fill="#8282FF"/>
<circle cx="7" cy="7" r="7" transform="matrix(1 0 0 -1 8083 3031)" fill="#8282FF"/>
<circle cx="7" cy="7" r="7" transform="matrix(1 0 0 -1 5106 4199)" fill="#8282FF"/>
<circle cx="8167" cy="62" r="7" fill="#8282FF"/>
<circle cx="8731" cy="2594" r="7" fill="#8282FF"/>
<circle cx="10401" cy="1736" r="7" fill="#8282FF"/>
<circle cx="7424" cy="2904" r="7" fill="#8282FF"/>
<circle cx="7" cy="7" r="7" transform="matrix(1 0 0 -1 10471 1357)" fill="#8282FF"/>
<circle cx="7" cy="7" r="7" transform="matrix(1 0 0 -1 9622 1861)" fill="#8282FF"/>
<circle cx="7" cy="7" r="7" transform="matrix(1 0 0 -1 8315 2171)" fill="#8282FF"/>
<circle cx="7" cy="7" r="7" transform="matrix(1 0 0 -1 3673 2600)" fill="#8282FF"/>
<circle cx="7" cy="7" r="7" transform="matrix(1 0 0 -1 5343 1742)" fill="#8282FF"/>
<circle cx="7" cy="7" r="7" transform="matrix(1 0 0 -1 2366 2910)" fill="#8282FF"/>
<circle cx="5427" cy="1351" r="7" fill="#8282FF"/>
<circle cx="4894" cy="476" r="7" fill="#8282FF"/>
<circle cx="3587" cy="786" r="7" fill="#8282FF"/>
<circle cx="7" cy="7" r="7" transform="matrix(1 0 0 -1 6634 3475)" fill="#8282FF"/>
<circle cx="7" cy="7" r="7" transform="matrix(1 0 0 -1 5785 3979)" fill="#8282FF"/>
<circle cx="7" cy="7" r="7" transform="matrix(1 0 0 -1 7455 3121)" fill="#8282FF"/>
<circle cx="7" cy="7" r="7" transform="matrix(1 0 0 -1 4478 4289)" fill="#8282FF"/>
<circle cx="7" cy="7" r="7" transform="matrix(1 0 0 -1 1506 3860)" fill="#8282FF"/>
<circle cx="5754" cy="1363" r="7" fill="#8282FF"/>
<circle cx="7424" cy="505" r="7" fill="#8282FF"/>
<circle cx="4447" cy="1673" r="7" fill="#8282FF"/>
<circle cx="7" cy="7" r="7" transform="matrix(1 0 0 -1 7494 2588)" fill="#8282FF"/>
<circle cx="7" cy="7" r="7" transform="matrix(1 0 0 -1 6645 3092)" fill="#8282FF"/>
<circle cx="7" cy="7" r="7" transform="matrix(1 0 0 -1 8315 2234)" fill="#8282FF"/>
<circle cx="7" cy="7" r="7" transform="matrix(1 0 0 -1 5338 3402)" fill="#8282FF"/>
<circle cx="8399" cy="859" r="7" fill="#8282FF"/>
<circle cx="7" cy="7" r="7" transform="matrix(1 0 0 -1 696 3831)" fill="#8282FF"/>
<circle cx="7" cy="7" r="7" transform="matrix(1 0 0 -1 2366 2973)" fill="#8282FF"/>
<circle cx="2450" cy="120" r="7" fill="#8282FF"/>
<circle cx="4258" cy="4148" r="7" fill="#8282FF"/>
<circle cx="5928" cy="3290" r="7" fill="#8282FF"/>
<circle cx="2951" cy="4458" r="7" fill="#8282FF"/>
<circle cx="7" cy="7" r="7" transform="matrix(1 0 0 -1 5149 307)" fill="#8282FF"/>
<circle cx="7" cy="7" r="7" transform="matrix(1 0 0 -1 3842 617)" fill="#8282FF"/>
<circle cx="6903" cy="3644" r="7" fill="#8282FF"/>
<circle cx="7" cy="7" r="7" transform="matrix(1 0 0 -1 870 188)" fill="#8282FF"/>
<circle cx="954" cy="2905" r="7" fill="#8282FF"/>
<path d="M6401.62 2801.68L6741.62 2391.68" stroke="#8282FF" stroke-width="5" stroke-linecap="round"/>
<path d="M8342.62 1186.32L8682.62 1596.32" stroke="#8282FF" stroke-width="5" stroke-linecap="round"/>
<path d="M2028.38 3227.32L1688.38 3637.32" stroke="#8282FF" stroke-width="5" stroke-linecap="round"/>
<path d="M7299.62 1646.32L7639.62 2056.32" stroke="#8282FF" stroke-width="5" stroke-linecap="round"/>
<path d="M9240.62 2341.68L9580.62 1931.68" stroke="#8282FF" stroke-width="5" stroke-linecap="round"/>
<path d="M1130.38 4382.68L790.385 3972.68" stroke="#8282FF" stroke-width="5" stroke-linecap="round"/>
<path d="M1350.62 2385.32L1690.62 2795.32" stroke="#8282FF" stroke-width="5" stroke-linecap="round"/>
<path d="M3291.62 1602.68L3631.62 1192.68" stroke="#8282FF" stroke-width="5" stroke-linecap="round"/>
<path d="M7079.38 3643.68L6739.38 3233.68" stroke="#8282FF" stroke-width="5" stroke-linecap="round"/>
<path d="M3133 2270L3543 2610" stroke="#8282FF" stroke-width="5" stroke-linecap="round"/>
<path d="M5074 1718L5484 1378" stroke="#8282FF" stroke-width="5" stroke-linecap="round"/>
<path d="M5944 4383L5534 4043" stroke="#8282FF" stroke-width="5" stroke-linecap="round"/>
<path d="M4031 2178L4441 1838" stroke="#8282FF" stroke-width="5" stroke-linecap="round"/>
<path d="M5972 1810L6382 2150" stroke="#8282FF" stroke-width="5" stroke-linecap="round"/>
<path d="M4399 3851L3989 4191" stroke="#8282FF" stroke-width="5" stroke-linecap="round"/>
<path d="M23 1071L433 1411" stroke="#8282FF" stroke-width="5" stroke-linecap="round"/>
<path d="M10348 3112L9938 3452" stroke="#8282FF" stroke-width="5" stroke-linecap="round"/>
<path d="M9703 1365L10113 1705" stroke="#8282FF" stroke-width="5" stroke-linecap="round"/>
<path d="M10601 3083L11011 2743" stroke="#8282FF" stroke-width="5" stroke-linecap="round"/>
<path d="M8757 834L9167 494" stroke="#8282FF" stroke-width="5" stroke-linecap="round"/>
<path d="M6593 166L7003 506" stroke="#8282FF" stroke-width="5" stroke-linecap="round"/>
<path d="M3069 1810L2659 2150" stroke="#8282FF" stroke-width="5" stroke-linecap="round"/>
<path d="M10501.6 2927.68L10841.6 2517.68" stroke="#8282FF" stroke-width="5" stroke-linecap="round"/>
<path d="M6128.38 3353.32L5788.38 3763.32" stroke="#8282FF" stroke-width="5" stroke-linecap="round"/>
<path d="M5230.38 4508.68L4890.38 4098.68" stroke="#8282FF" stroke-width="5" stroke-linecap="round"/>
<path d="M4773 2093L5113 2503" stroke="#8282FF" stroke-width="5" stroke-linecap="round"/>
<path d="M7103 4240L7443 3830" stroke="#8282FF" stroke-width="5" stroke-linecap="round"/>
<path d="M11179.4 3769.68L10839.4 3359.68" stroke="#8282FF" stroke-width="5" stroke-linecap="round"/>
<path d="M7233 2396L7643 2736" stroke="#8282FF" stroke-width="5" stroke-linecap="round"/>
<path d="M9174 1844L9584 1504" stroke="#8282FF" stroke-width="5" stroke-linecap="round"/>
<path d="M9397 3885L8987 3545" stroke="#8282FF" stroke-width="5" stroke-linecap="round"/>
<path d="M8131 2304L8541 1964" stroke="#8282FF" stroke-width="5" stroke-linecap="round"/>
<path d="M10072 1936L10482 2276" stroke="#8282FF" stroke-width="5" stroke-linecap="round"/>
<path d="M8499 3977L8089 4317" stroke="#8282FF" stroke-width="5" stroke-linecap="round"/>
<path d="M2182 3043L2592 2703" stroke="#8282FF" stroke-width="5" stroke-linecap="round"/>
<path d="M4248 2909L4658 3249" stroke="#8282FF" stroke-width="5" stroke-linecap="round"/>
<path d="M2827 4790L2417 4450" stroke="#8282FF" stroke-width="5" stroke-linecap="round"/>
<path d="M1929 3072L1519 3412" stroke="#8282FF" stroke-width="5" stroke-linecap="round"/>
<path d="M8752 3948L9162 3608" stroke="#8282FF" stroke-width="5" stroke-linecap="round"/>
<path d="M10693 292L11103 632" stroke="#8282FF" stroke-width="5" stroke-linecap="round"/>
<path d="M8388 3074L7978 3414" stroke="#8282FF" stroke-width="5" stroke-linecap="round"/>
<path d="M4144.58 1691.57L3917 1210" stroke="#8282FF" stroke-width="5" stroke-linecap="round"/>
<path d="M7962.33 3126.17L8189.91 3607.74" stroke="#8282FF" stroke-width="5" stroke-linecap="round"/>
<path d="M3248.57 286.133L2817.43 598.898" stroke="#8282FF" stroke-width="5" stroke-linecap="round"/>
<path d="M1195.71 477.891L968.128 -3.67724" stroke="#8282FF" stroke-width="5" stroke-linecap="round"/>
<path d="M8545.42 4468.29L8976.56 4155.52" stroke="#8282FF" stroke-width="5" stroke-linecap="round"/>
<path d="M8827.91 2478.77L8396.77 2791.54" stroke="#8282FF" stroke-width="5" stroke-linecap="round"/>
<path d="M6975.02 1667.09L6747.44 1185.52" stroke="#8282FF" stroke-width="5" stroke-linecap="round"/>
<path d="M2966.08 2275.64L3397.22 1962.88" stroke="#8282FF" stroke-width="5" stroke-linecap="round"/>
<path d="M7842.37 1331.91L7360.8 1559.49" stroke="#8282FF" stroke-width="5" stroke-linecap="round"/>
<path d="M5386.72 908.055L5073.96 476.919" stroke="#8282FF" stroke-width="5" stroke-linecap="round"/>
<path d="M1941 4123.58L2422.57 3896" stroke="#8282FF" stroke-width="5" stroke-linecap="round"/>
<path d="M6282.88 1612.57L5970.12 1181.43" stroke="#8282FF" stroke-width="5" stroke-linecap="round"/>
<path d="M4493.99 774.258L4012.43 1001.84" stroke="#8282FF" stroke-width="5" stroke-linecap="round"/>
<path d="M5511.1 3141.85L5823.86 3572.99" stroke="#8282FF" stroke-width="5" stroke-linecap="round"/>
<path d="M10440.2 1535.16L9958.66 1762.74" stroke="#8282FF" stroke-width="5" stroke-linecap="round"/>
<path d="M-68.2402 949.203L244.525 1380.34" stroke="#8282FF" stroke-width="5" stroke-linecap="round"/>
<path d="M5523.64 2577.29L5210.87 2146.15" stroke="#8282FF" stroke-width="5" stroke-linecap="round"/>
<path d="M6520.77 1703.47L6833.53 2134.6" stroke="#8282FF" stroke-width="5" stroke-linecap="round"/>
</g>
<defs>
<clipPath id="clip0_1268_31241">
<rect width="11073" height="4783" fill="white"/>
</clipPath>
</defs>
</svg>
