<svg width="6303" height="2952" viewBox="0 0 6303 2952" fill="none" xmlns="http://www.w3.org/2000/svg">
<path d="M3277.51 659L3552.62 795V830.38L3277.51 966.38V924.35L3507.51 812.72L3277.51 701.09V659Z" fill="#282828" stroke="#282828" stroke-width="2.13" stroke-miterlimit="10"/>
<path d="M3207.96 957.289C3225.65 957.289 3242.73 974.369 3242.73 998.159C3242.73 1021.34 3226.87 1039.64 3207.35 1039.64C3188.44 1039.64 3172.58 1021.34 3172.58 998.159C3172.53 976.809 3187.17 957.289 3207.96 957.289Z" fill="#282828" stroke="#282828" stroke-width="2.13" stroke-miterlimit="10"/>
<path d="M3091.65 957.289C3109.34 957.289 3126.42 974.369 3126.42 998.159C3126.42 1021.34 3110.56 1039.64 3091.04 1039.64C3072.13 1039.64 3056.27 1021.34 3056.27 998.159C3056.27 976.809 3070.96 957.289 3091.65 957.289Z" fill="#282828" stroke="#282828" stroke-width="2.13" stroke-miterlimit="10"/>
<path d="M2975.39 957.289C2993.08 957.289 3010.16 974.369 3010.16 998.159C3010.16 1021.34 2994.3 1039.64 2974.78 1039.64C2955.87 1039.64 2940.01 1021.34 2940.01 998.159C2940.01 976.809 2954.65 957.289 2975.39 957.289Z" fill="#282828" stroke="#282828" stroke-width="2.13" stroke-miterlimit="10"/>
<path d="M2898.48 966.441L2623.37 830.441V795.031L2898.48 659.031V701.091L2668.48 812.721L2898.48 924.351V966.441Z" fill="#282828" stroke="#282828" stroke-width="2.13" stroke-miterlimit="10"/>
<path d="M4888.06 1343.68V1139.94H4901.48L4983.22 1175.29L4976.51 1193.59C4972.85 1191.76 4964.31 1185.66 4955.16 1185.66C4941.74 1185.66 4940.52 1198.47 4940.52 1217.99V1574.29C4903.92 1601.13 4863.66 1616.99 4827.67 1616.99C4759.96 1616.96 4695.96 1541.29 4695.96 1440.06C4695.96 1364.42 4734.39 1290 4798.44 1290C4845.36 1290 4877.08 1329.65 4888.06 1343.68ZM4888.06 1548.03V1372.35C4865.49 1347.35 4842.31 1344.9 4831.33 1344.9C4780.7 1344.9 4749.59 1396.75 4749.59 1468.73C4749.59 1526.07 4770.33 1587.68 4822.18 1587.68C4857.56 1587.68 4879.52 1559.62 4888.06 1548.03Z" fill="#282828" stroke="#282828" stroke-width="2.13" stroke-miterlimit="10"/>
<path d="M4596.86 1513.87V1299.76H4693.24V1318.06H4676.16C4662.74 1318.06 4649.32 1325.99 4649.32 1356.49V1519.97C4649.32 1575.48 4627.32 1616.97 4575.51 1616.97C4532.2 1616.97 4507.19 1588.3 4487.67 1562.07V1616.97H4482.18L4387.63 1577.29L4393.12 1558.99C4400.44 1561.99 4405.93 1564.48 4414.47 1564.48C4431.55 1564.48 4435.21 1545.57 4435.21 1535.2V1299.76H4531.59V1318.06H4515.12C4496.21 1318.06 4487.67 1330.87 4487.67 1354.66V1535.22C4504.75 1552.3 4525.49 1569.99 4552.33 1569.99C4574.9 1569.99 4596.86 1555.96 4596.86 1513.87Z" fill="#282828" stroke="#282828" stroke-width="2.13" stroke-miterlimit="10"/>
<path d="M4313.03 1207.65H4328.28C4343.53 1266.82 4364.88 1293.05 4403.92 1311.35V1327.82H4365.49V1532.82C4365.49 1584.06 4343.49 1617 4308.15 1617C4291.07 1617 4253.25 1609.07 4237.39 1545H4253.86C4258.74 1556 4264.86 1572.45 4284.36 1572.45C4309.36 1572.45 4313.03 1536.45 4313.03 1515.11V1327.82H4256.3V1299.76H4313.03V1207.65Z" fill="#282828" stroke="#282828" stroke-width="2.13" stroke-miterlimit="10"/>
<path d="M4034.27 1541.29V1290H4048.96L4125.82 1326L4122.82 1343.69C4114.89 1341.25 4111.23 1340.69 4106.96 1340.69C4089.88 1340.69 4086.83 1361.43 4086.83 1375.46V1549.29C4086.83 1571.86 4096.59 1588.29 4118.55 1588.29H4128.92V1607.2H3993.4V1588.29C4015.96 1587.07 4034.27 1585.85 4034.27 1541.29ZM4090.39 1175.9C4090.39 1195.42 4076.97 1211.9 4059.89 1211.9C4042.81 1211.9 4029.39 1195.43 4029.39 1175.9C4029.39 1155.16 4044.64 1139.9 4059.28 1139.9C4076.36 1139.94 4090.39 1155.8 4090.39 1175.93V1175.9Z" fill="#282828" stroke="#282828" stroke-width="2.13" stroke-miterlimit="10"/>
<path d="M3913.61 1207.65H3928.86C3944.11 1266.82 3965.46 1293.05 4004.5 1311.35V1327.82H3966.07V1532.82C3966.07 1584.06 3944.07 1617 3908.73 1617C3891.65 1617 3853.83 1609.07 3837.97 1545H3854.44C3859.32 1556 3865.44 1572.45 3884.94 1572.45C3909.94 1572.45 3913.61 1536.45 3913.61 1515.11V1327.82H3856.88V1299.76H3913.61V1207.65Z" fill="#282828" stroke="#282828" stroke-width="2.13" stroke-miterlimit="10"/>
<path d="M3479.29 1499.84L3492.71 1490.69C3503.08 1509.6 3526.87 1554.13 3573.84 1554.13C3632.4 1554.13 3663.51 1484.59 3663.51 1421.13C3663.51 1366.29 3639.72 1319.29 3590.96 1319.29C3577.54 1319.29 3551.96 1324.17 3550.09 1352.23C3549.48 1361.38 3547.65 1390.05 3516.54 1390.05C3492.75 1390.05 3487.87 1369.92 3487.87 1358.33C3487.87 1324.78 3523.25 1290.01 3576.93 1290.01C3641.59 1290.01 3713.57 1345.52 3713.57 1458.37C3713.57 1557.19 3657.45 1616.97 3594.57 1616.97C3528.09 1616.96 3494.54 1550.47 3479.29 1499.84Z" fill="#282828" stroke="#282828" stroke-width="2.13" stroke-miterlimit="10"/>
<path d="M3391.96 1342.46V1139.94H3404.77L3488.96 1175.29L3482.86 1192.98C3477.37 1190.54 3472.49 1188.1 3465.17 1188.1C3455.41 1188.1 3444.43 1192.98 3444.43 1221.04V1541.29C3444.43 1587.04 3464.56 1587.65 3482.86 1588.29V1607.2H3346.2V1588.29H3355.35C3380.97 1588.29 3391.95 1576.7 3391.95 1548.64V1368.64C3379.75 1357.64 3355.35 1338.14 3326.07 1338.14C3299.23 1338.14 3280.32 1359.49 3280.32 1395.48V1539.48C3280.32 1586.48 3296.18 1587.67 3319.32 1588.28V1607.19H3191.26V1588.29C3207.73 1588.29 3227.86 1587.68 3227.86 1546.81V1392.48C3227.86 1340.02 3254.7 1290 3304.11 1290C3336.44 1290 3362.67 1311.35 3391.96 1342.46Z" fill="#282828" stroke="#282828" stroke-width="2.13" stroke-miterlimit="10"/>
<path d="M2975.63 1547.42V1369.91C2975.63 1302.2 3024.43 1290 3061.03 1290C3140.33 1290 3169.61 1337.58 3169.61 1367.47C3169.61 1383.33 3157.41 1398.58 3140.94 1398.58C3129.35 1398.58 3117.15 1390.04 3115.32 1371.74C3114.71 1369.3 3115.32 1355.88 3115.32 1352.83C3115.32 1313.83 3079.94 1312.57 3070.79 1312.57C3018.33 1312.57 3028.09 1370.57 3028.09 1405.29C3098.85 1434.57 3114.71 1440.67 3136.67 1455.92C3175.1 1482.15 3178.76 1516.31 3178.76 1534C3178.76 1582.8 3150.09 1617 3113.49 1617C3087.87 1617 3058.59 1599.31 3028.09 1566.37C3027.48 1606.63 3005.52 1617 2983.56 1617C2951.84 1617 2935.37 1592 2918.9 1561.49L2932.32 1549.9C2937.81 1559.05 2946.32 1572.47 2960.38 1572.47C2972.58 1572.43 2975.63 1557.79 2975.63 1547.42ZM3125.08 1514.48C3125.08 1476.05 3098.24 1459.58 3028.08 1432.13V1537.05C3046.38 1554.13 3063.46 1568.16 3084.81 1568.16C3107.96 1568.16 3125.08 1544.37 3125.08 1514.48Z" fill="#282828" stroke="#282828" stroke-width="2.13" stroke-miterlimit="10"/>
<path d="M2823.07 1344.29V1290H2835.27L2918.27 1325.38L2912.74 1344.29C2907.86 1341.85 2897.49 1338.19 2893.22 1338.19C2878.58 1338.19 2874.92 1351 2874.92 1372.96V1547.42C2874.92 1575.48 2885.29 1588.29 2908.47 1588.29H2918.23V1607.2H2777.96V1588.29H2788.96C2811.53 1588.29 2823.12 1576.09 2823.12 1550.47V1371.74C2806.04 1356.49 2784.69 1338.19 2757.24 1338.19C2721.86 1338.19 2711.49 1367.47 2711.49 1400.41V1540.1C2711.49 1574.87 2720.03 1588.29 2744.43 1588.29H2754.8V1607.2H2620.6V1588.29H2629.14C2651.14 1588.29 2659.03 1569.99 2659.03 1547.42V1393.09C2659.03 1342.46 2684.03 1290 2735.28 1290C2772.44 1290 2802.33 1319.29 2823.07 1344.29Z" fill="#282828" stroke="#282828" stroke-width="2.13" stroke-miterlimit="10"/>
<path d="M2372.35 1310.13H2435.79C2453.06 1296.78 2474.35 1289.69 2496.18 1290C2548.64 1290 2600.49 1333.31 2600.49 1397.36C2600.49 1424.2 2590.12 1462.63 2558.4 1483.36C2593.17 1521.79 2598.05 1535.82 2598.05 1549.24C2598.05 1573.64 2579.14 1581.57 2574.26 1583.4C2590.73 1602.31 2616.96 1634.64 2616.96 1662.09C2616.96 1693.81 2565.11 1722.48 2506.55 1722.48C2414.44 1722.48 2361.98 1657.82 2361.98 1604.14C2361.98 1551.07 2409.56 1540.09 2454.7 1539.48C2527.9 1538.26 2551.7 1533.38 2551.7 1521.79C2551.7 1513.86 2541.94 1502.88 2534.62 1495.56C2522.9 1498.84 2510.79 1500.48 2498.62 1500.44C2443.11 1500.44 2394.92 1463.84 2394.92 1398.57C2394.92 1373.57 2402.24 1357.09 2405.92 1348.57H2372.37C2364.44 1348.57 2358.95 1347.35 2358.95 1334.57V1324.16C2358.96 1314.4 2360.76 1310.13 2372.35 1310.13ZM2574.87 1635.29C2574.87 1624.29 2565.72 1609.06 2552.87 1591.37C2525.42 1595.64 2522.37 1595.03 2471.13 1598.08C2418.67 1601.08 2396.13 1602.35 2396.13 1630.41C2396.13 1657.25 2430.29 1676.16 2471.13 1676.16C2510.82 1676.13 2574.87 1662.1 2574.87 1635.29ZM2543.15 1377.87C2543.15 1363.23 2541.93 1340.05 2529.15 1325.41C2519.39 1314.41 2507.8 1312.6 2502.92 1312.6C2473.03 1312.6 2452.92 1364.45 2452.92 1410.81C2452.92 1432.81 2458.41 1478.52 2492.57 1478.52C2526.73 1478.52 2543.15 1424.81 2543.15 1377.84V1377.87Z" fill="#282828" stroke="#282828" stroke-width="2.13" stroke-miterlimit="10"/>
<path d="M2306.65 1420.54H2130.36C2131.58 1335.75 2174.89 1290 2232.23 1290C2309.09 1290 2357.23 1365.64 2357.23 1454.7C2357.23 1551.08 2301.11 1616.96 2240.11 1616.96C2175.45 1616.96 2133.97 1549.86 2121.11 1480.32L2135.75 1473.61C2148.56 1527.29 2186.38 1554.74 2220.54 1554.74C2260.29 1554.74 2304.82 1515.09 2306.65 1420.54ZM2305.43 1392.48C2302.99 1347.95 2277.98 1321.11 2247.43 1321.11C2216.88 1321.11 2197.43 1349.17 2194.97 1392.48H2305.43Z" fill="#282828" stroke="#282828" stroke-width="2.13" stroke-miterlimit="10"/>
<path d="M1937.73 1300.37H1952.37C1955.42 1302.2 1959.08 1305.25 1963.96 1305.25C1966.96 1305.25 1968.84 1304.64 1985.96 1297.32C1998.16 1291.83 2007.96 1290 2019.51 1290C2070.75 1290 2100.64 1335.14 2100.64 1377.23C2100.64 1432.74 2058.55 1459.58 2021.95 1480.93C1996.95 1495.57 1964.61 1515.7 1964.61 1547.42C1964.61 1565.72 1977.42 1592.56 2011.61 1592.56C2057.36 1592.56 2076.27 1541.93 2079.32 1501.67H2095.79V1607.2H2079.25C2077.42 1605.37 2073.76 1601.71 2068.25 1601.71C2065.25 1601.71 2054.83 1605.37 2048.12 1608.42C2034.7 1613.91 2022.5 1616.96 2007.25 1616.96C1948.69 1616.96 1917.58 1569.38 1917.58 1522.41C1917.58 1469.34 1959.06 1444.33 1999.93 1419.93C2029.21 1402.24 2060.32 1382.11 2060.32 1355.93C2060.32 1338.85 2047.51 1313.23 2020.06 1313.23C2005.42 1313.23 1960.28 1322.38 1952.35 1401.68H1937.73V1300.37Z" fill="#282828" stroke="#282828" stroke-width="2.13" stroke-miterlimit="10"/>
<path d="M1567.47 1547.42V1369.91C1567.47 1302.2 1616.27 1290 1652.87 1290C1732.17 1290 1761.45 1337.58 1761.45 1367.47C1761.45 1383.33 1749.25 1398.58 1732.78 1398.58C1721.19 1398.58 1708.99 1390.04 1707.16 1371.74C1706.55 1369.3 1707.16 1355.88 1707.16 1352.83C1707.16 1313.83 1671.78 1312.57 1662.63 1312.57C1610.17 1312.57 1619.93 1370.57 1619.93 1405.29C1690.69 1434.57 1706.55 1440.67 1728.51 1455.92C1766.96 1482.15 1770.6 1516.29 1770.6 1534C1770.6 1582.8 1741.93 1617 1705.33 1617C1679.71 1617 1650.43 1599.31 1619.93 1566.37C1619.32 1606.63 1597.36 1617 1575.4 1617C1543.68 1617 1527.21 1592 1510.74 1561.49L1524.16 1549.9C1529.65 1559.05 1538.16 1572.47 1552.22 1572.47C1564.42 1572.43 1567.47 1557.79 1567.47 1547.42ZM1716.96 1514.48C1716.96 1476.05 1690.12 1459.58 1619.96 1432.13V1537.05C1638.26 1554.13 1655.34 1568.16 1676.69 1568.16C1699.84 1568.16 1716.96 1544.37 1716.96 1514.48Z" fill="#282828" stroke="#282828" stroke-width="2.13" stroke-miterlimit="10"/>
<path d="M1339.15 1300.37H1353.79C1356.84 1302.2 1360.5 1305.25 1365.38 1305.25C1368.38 1305.25 1370.26 1304.64 1387.38 1297.32C1399.58 1291.83 1409.38 1290 1420.93 1290C1472.17 1290 1502.06 1335.14 1502.06 1377.23C1502.06 1432.74 1459.97 1459.58 1423.37 1480.93C1398.32 1495.57 1365.96 1515.7 1365.96 1547.42C1365.96 1565.72 1378.77 1592.56 1412.96 1592.56C1458.71 1592.56 1477.62 1541.93 1480.67 1501.67H1497.14V1607.2H1480.67C1478.84 1605.37 1475.18 1601.71 1469.67 1601.71C1466.67 1601.71 1456.25 1605.37 1449.54 1608.42C1436.12 1613.91 1423.92 1616.96 1408.67 1616.96C1350.11 1616.96 1319 1569.38 1319 1522.41C1319 1469.34 1360.48 1444.33 1401.35 1419.93C1430.63 1402.24 1461.74 1382.11 1461.74 1355.93C1461.74 1338.85 1448.93 1313.23 1421.48 1313.23C1406.84 1313.23 1361.7 1322.38 1353.77 1401.68H1339.15V1300.37Z" fill="#282828" stroke="#282828" stroke-width="2.13" stroke-miterlimit="10"/>
<path d="M4562.36 1747.76H4549.55V1728.85H4725.84V1747.76H4715.47C4686.19 1747.76 4672.77 1766.67 4672.77 1798.39V2107.05C4672.77 2141.21 4686.77 2158.29 4715.47 2158.29H4729.47V2177.2H4547.11V2158.29H4560.53C4588.59 2158.29 4603.84 2142.43 4603.84 2110.71V1798.39C4603.84 1766.67 4590.42 1747.76 4562.36 1747.76Z" fill="#282828" stroke="#282828" stroke-width="2.13" stroke-miterlimit="10"/>
<path d="M4324.47 1777.65H4339.72C4354.97 1836.82 4376.32 1863.05 4415.36 1881.35V1897.82H4376.96V2102.82C4376.96 2154.06 4354.96 2187 4319.62 2187C4302.54 2187 4264.72 2179.07 4248.86 2115H4265.33C4270.21 2126 4276.33 2142.45 4295.83 2142.45C4320.83 2142.45 4324.5 2106.45 4324.5 2085.11V1897.82H4267.77V1869.76H4324.5L4324.47 1777.65Z" fill="#282828" stroke="#282828" stroke-width="2.13" stroke-miterlimit="10"/>
<path d="M4154.4 1914.9V1860H4167.21L4250.78 1891.11L4246.51 1908.8C4244.07 1908.19 4228.82 1905.8 4226.99 1905.8C4211.13 1905.8 4206.25 1922.27 4206.25 1935.69V2118.08C4206.25 2145.53 4216.62 2158.34 4241.02 2158.34H4250.78V2177.25H4107.43V2158.29H4117.8C4143.42 2158.29 4154.4 2145.48 4154.4 2118.03V1952.72C4134.27 1910.02 4116.58 1910.02 4112.92 1910.02C4109.87 1910.02 4106.21 1910.63 4098.92 1920.39C4088.55 1933.2 4081.84 1935.03 4075.13 1935.03C4059.88 1935.03 4047.68 1918.56 4047.68 1899.65C4047.68 1876.47 4064.76 1860 4084.89 1860C4106.82 1860 4129.39 1874.64 4154.4 1914.9Z" fill="#282828" stroke="#282828" stroke-width="2.13" stroke-miterlimit="10"/>
<path d="M3918.96 1888.06V1869.76H4040.96V1888.06C4026.96 1888.67 4017.78 1889.89 4006.19 1919.17L3908.58 2158.29C3923.22 2199.16 3937.25 2233.93 3961.65 2233.93C3968.97 2233.93 3974.46 2230.27 3979.95 2227.22C3983 2225.39 3988.49 2221.12 3999.47 2221.12C4015.94 2221.12 4029.97 2234.54 4029.97 2254.67C4029.97 2277.24 4009.84 2292.49 3985.44 2292.49C3936.64 2292.49 3909.8 2238.81 3896.99 2201.6L3809.15 1946.01C3806.71 1939.3 3796.34 1911.85 3789.63 1901.48C3781.09 1888.06 3775.63 1888.06 3767.06 1888.06V1869.76H3850.63V1888.06C3842.09 1888.67 3823.18 1888.67 3823.18 1903.31C3823.18 1910.63 3828.67 1924.66 3829.89 1928.31L3882.96 2082.65L3940.3 1941.13C3947.01 1922.83 3948.23 1916.13 3948.23 1910.02C3948.23 1889.89 3931.15 1888.67 3918.96 1888.06Z" fill="#282828" stroke="#282828" stroke-width="2.13" stroke-miterlimit="10"/>
<path d="M3568.21 1777.65H3583.46C3598.71 1836.82 3620.06 1863.05 3659.1 1881.35V1897.82H3620.67V2102.82C3620.67 2154.06 3598.67 2187 3563.33 2187C3546.25 2187 3508.43 2179.07 3492.57 2115H3509.04C3513.92 2126 3520.04 2142.45 3539.54 2142.45C3564.54 2142.45 3568.21 2106.45 3568.21 2085.11V1897.82H3511.48V1869.76H3568.21V1777.65Z" fill="#282828" stroke="#282828" stroke-width="2.13" stroke-miterlimit="10"/>
<path d="M3343.85 1860C3417.66 1860 3485.98 1935.64 3485.98 2030.8C3485.98 2114.98 3431.08 2186.96 3355.44 2186.96C3279.19 2186.96 3214.53 2110.1 3214.53 2016.16C3214.53 1930.76 3268.82 1860 3343.85 1860ZM3424.96 2009.45C3424.96 1967.36 3418.86 1889.28 3359.08 1889.28C3307.23 1889.28 3275.51 1958.21 3275.51 2044.83C3275.51 2137.55 3313.33 2157.68 3343.22 2157.68C3396.31 2157.68 3424.96 2088.75 3424.96 2009.45Z" fill="#282828" stroke="#282828" stroke-width="2.13" stroke-miterlimit="10"/>
<path d="M3021.78 1990.54H2845.49C2846.71 1905.75 2890.02 1860 2947.36 1860C3024.22 1860 3072.36 1935.64 3072.36 2024.7C3072.36 2121.08 3016.24 2186.96 2955.24 2186.96C2890.58 2186.96 2849.1 2119.86 2836.29 2050.32L2850.93 2043.61C2863.74 2097.29 2901.56 2124.74 2935.72 2124.74C2975.42 2124.74 3019.96 2085.09 3021.78 1990.54ZM3020.56 1962.48C3018.12 1917.95 2993.11 1891.11 2962.61 1891.11C2932.11 1891.11 2912.61 1919.17 2910.15 1962.48H3020.56Z" fill="#282828" stroke="#282828" stroke-width="2.13" stroke-miterlimit="10"/>
<path d="M2719.35 1888.06V1869.76H2844.35V1888.06C2821.17 1888.06 2815.07 1894.16 2793.72 1928.93L2738.82 2021.04L2802.82 2121.04C2823.56 2152.15 2831.49 2154.59 2847.96 2158.25V2177.16H2757.68V2158.29C2774.76 2157.07 2782.08 2156.46 2782.08 2146.09C2782.08 2141.82 2781.47 2136.94 2774.15 2125.35L2724.15 2046.66L2678.4 2123.52C2674.13 2130.23 2669.25 2139.38 2669.25 2146.09C2669.25 2156.46 2679.01 2157.09 2693.65 2158.29V2177.2H2574.65V2158.29C2585.65 2157.68 2595.39 2157.07 2618.57 2117.42L2690.57 1994.81L2643.57 1922.22C2622.83 1890.5 2616.12 1888.67 2598.43 1888.06V1869.76H2687.49V1888.06C2678.95 1888.67 2664.92 1889.28 2664.92 1899.65C2664.92 1905.14 2671.63 1917.34 2674.68 1922.22L2705.79 1969.22L2732.16 1925.29C2740.09 1912.48 2740.7 1906.99 2740.7 1902.72C2740.7 1890.5 2732.16 1889.89 2719.35 1888.06Z" fill="#282828" stroke="#282828" stroke-width="2.13" stroke-miterlimit="10"/>
<path d="M2483.77 1922.83V1860H2498.41L2578.32 1891.11L2573.44 1911.24C2568.56 1908.24 2562.44 1905.14 2556.36 1905.14C2539.89 1905.14 2536.23 1924.66 2536.23 1952.14V2238.23C2536.23 2254.7 2544.16 2273.61 2567.34 2273.61H2578.34V2292.52H2437.41V2273.61H2451.41C2471.54 2273.61 2483.74 2261.41 2483.74 2238.23V2165.03C2473.37 2175.4 2445.92 2187.03 2422.13 2187.03C2364.13 2187.03 2292.81 2128.47 2292.81 2012.57C2292.81 1921.68 2339.81 1860.07 2395.29 1860.07C2411.18 1860 2450.83 1865.49 2483.77 1922.83ZM2483.77 2099.73V1955.73C2466.69 1931.94 2447.17 1916.73 2422.77 1916.73C2380.07 1916.73 2347.77 1964.92 2347.77 2037.51C2347.77 2122.3 2381.93 2158.9 2421.58 2158.9C2439.27 2158.9 2454.52 2151.58 2461.84 2143.65C2463.64 2141.82 2483.77 2122.29 2483.77 2099.73Z" fill="#282828" stroke="#282828" stroke-width="2.13" stroke-miterlimit="10"/>
<path d="M2196.16 2113.15V1709.94H2208.96L2292.53 1744.1L2287.65 1762.4C2273.65 1757.52 2273.01 1757.52 2268.74 1757.52C2251.66 1757.52 2248 1774.6 2248 1790.46V2115.59C2248 2158.29 2270 2158.29 2287.65 2158.29V2177.2H2151.65V2158.29C2180.3 2158.29 2196.16 2157.68 2196.16 2113.15Z" fill="#282828" stroke="#282828" stroke-width="2.13" stroke-miterlimit="10"/>
<path d="M1936.96 2117.42V1939.91C1936.96 1872.2 1985.76 1860 2022.36 1860C2101.66 1860 2130.94 1907.58 2130.94 1937.47C2130.94 1953.33 2118.74 1968.58 2102.27 1968.58C2090.68 1968.58 2078.48 1960.04 2076.65 1941.74C2076.04 1939.3 2076.65 1925.88 2076.65 1922.83C2076.65 1883.83 2041.27 1882.57 2032.12 1882.57C1979.66 1882.57 1989.42 1940.57 1989.42 1975.29C2060.18 2004.57 2076.04 2010.67 2098 2025.92C2136.43 2052.15 2140.09 2086.31 2140.09 2104C2140.09 2152.8 2111.42 2187 2074.82 2187C2049.2 2187 2019.92 2169.31 1989.42 2136.37C1988.81 2176.63 1966.85 2187 1944.89 2187C1913.17 2187 1896.7 2162 1880.23 2131.49L1893.65 2119.9C1899.14 2129.05 1907.65 2142.47 1921.71 2142.47C1933.86 2142.43 1936.96 2127.79 1936.96 2117.42ZM2086.41 2084.48C2086.41 2046.05 2059.57 2029.58 1989.41 2002.13V2107.05C2007.71 2124.13 2024.79 2138.16 2046.14 2138.16C2069.28 2138.16 2086.36 2114.37 2086.36 2084.48H2086.41Z" fill="#282828" stroke="#282828" stroke-width="2.13" stroke-miterlimit="10"/>
<path d="M1787.71 2111.29V1860H1802.35L1879.21 1896L1876.21 1913.69C1868.28 1911.25 1864.62 1910.64 1860.35 1910.64C1843.27 1910.64 1840.22 1931.38 1840.22 1945.41V2119.29C1840.22 2141.86 1849.98 2158.29 1871.94 2158.29H1882.26V2177.2H1746.84V2158.29C1769.41 2157.07 1787.71 2155.85 1787.71 2111.29ZM1843.83 1745.9C1843.83 1765.42 1830.41 1781.9 1813.33 1781.9C1796.25 1781.9 1782.83 1765.43 1782.83 1745.9C1782.83 1725.16 1798.08 1709.9 1812.72 1709.9C1829.8 1709.94 1843.83 1725.8 1843.83 1745.93V1745.9Z" fill="#282828" stroke="#282828" stroke-width="2.13" stroke-miterlimit="10"/>
<path d="M1639.85 1914.29V1860H1652.05L1735.05 1895.38L1729.52 1914.29C1724.64 1911.85 1714.27 1908.19 1710 1908.19C1695.36 1908.19 1691.7 1921 1691.7 1942.96V2117.42C1691.7 2145.48 1702.07 2158.29 1725.25 2158.29H1735.01V2177.2H1594.71V2158.29H1605.71C1628.28 2158.29 1639.87 2146.09 1639.87 2120.47V1941.74C1622.79 1926.49 1601.44 1908.19 1573.99 1908.19C1538.61 1908.19 1528.24 1937.47 1528.24 1970.41V2110.1C1528.24 2144.87 1536.78 2158.29 1561.18 2158.29H1571.55V2177.2H1437.33V2158.29H1445.87C1467.87 2158.29 1475.76 2139.99 1475.76 2117.42V1963.09C1475.76 1912.46 1500.76 1860 1552.01 1860C1589.22 1860 1619.11 1889.29 1639.85 1914.29Z" fill="#282828" stroke="#282828" stroke-width="2.13" stroke-miterlimit="10"/>
</svg>
