<svg width="169" height="168" viewBox="0 0 169 168" fill="none" xmlns="http://www.w3.org/2000/svg">
<path d="M18.9101 167.597C13.847 167.597 9.47429 165.871 5.79203 162.419C2.10978 158.736 0.268649 154.249 0.268649 148.955C0.268649 143.892 2.22485 139.405 6.13725 135.492L57.919 84.0557L6.13725 32.6191C2.22485 28.2464 0.268649 23.5285 0.268649 18.4654C0.268649 13.4023 1.99471 9.14473 5.44682 5.69261C9.12908 2.01035 13.6168 0.169216 18.9101 0.169216C23.743 0.169216 28.4609 2.35556 33.0638 6.72826L84.1551 57.8196L135.246 6.72826C139.619 2.35556 144.337 0.169216 149.4 0.169216C154.463 0.169216 158.836 2.01035 162.518 5.69261C166.2 9.37486 168.042 13.7475 168.042 18.8107C168.042 23.8738 165.97 28.4766 161.828 32.6191L110.391 84.0557L161.828 135.492C165.97 139.635 168.042 144.122 168.042 148.955C168.042 154.019 166.2 158.391 162.518 162.073C158.836 165.756 154.463 167.597 149.4 167.597C143.877 167.597 139.159 165.641 135.246 161.728L84.1551 110.292L33.0638 161.728C29.1514 165.641 24.4335 167.597 18.9101 167.597Z" fill="white"/>
</svg>
